<?xml version="1.0" encoding="UTF-8"?>
<svg xmlns="http://www.w3.org/2000/svg" width="1080" height="1380" viewBox="0 0 1080 1380" font-family="-apple-system, BlinkMacSystemFont, 'Segoe UI', Roboto, Helvetica, Arial, sans-serif">
  <!--
    FedProspect navigation redesign — PAGE-LEVEL mockup (design artifact only).
    Two stacked app-shell frames:
      Frame 1 — clicking a Tier-1 DESTINATION ("Dashboard") => a plain page, no tabs.
      Frame 2 — clicking a Tier-2 HUB ("Pipeline")        => a page with a tab strip.
  -->
  <defs>
    <!-- soft drop shadow for the app-shell cards -->
    <filter id="frameShadow" x="-4%" y="-4%" width="108%" height="112%">
      <feDropShadow dx="0" dy="2" stdDeviation="5" flood-color="#101828" flood-opacity="0.10"/>
    </filter>
    <filter id="cardShadow" x="-10%" y="-10%" width="120%" height="124%">
      <feDropShadow dx="0" dy="1" stdDeviation="2" flood-color="#101828" flood-opacity="0.10"/>
    </filter>
    <!-- reusable chevron (Tier-2 hub affordance) -->
    <g id="chevR">
      <path d="M0 0 L4 4 L0 8" fill="none" stroke="#8a93a3" stroke-width="1.6" stroke-linecap="round" stroke-linejoin="round"/>
    </g>
    <g id="chevRactive">
      <path d="M0 0 L4 4 L0 8" fill="none" stroke="#ffffff" stroke-width="1.6" stroke-linecap="round" stroke-linejoin="round"/>
    </g>
    <!-- bell icon -->
    <g id="bell">
      <path d="M0 -5 C 4 -5 5 -2 5 1 L 6 4 L -6 4 L -5 1 C -5 -2 -4 -5 0 -5 Z" fill="none" stroke="#6b7280" stroke-width="1.4" stroke-linejoin="round"/>
      <path d="M -2 5 C -2 7 2 7 2 5" fill="none" stroke="#6b7280" stroke-width="1.4" stroke-linecap="round"/>
    </g>
    <!-- search/magnifier glyph -->
    <g id="mag">
      <circle cx="0" cy="0" r="3.4" fill="none" stroke="#8a93a3" stroke-width="1.4"/>
      <path d="M2.4 2.4 L5 5" stroke="#8a93a3" stroke-width="1.4" stroke-linecap="round"/>
    </g>
  </defs>

  <!-- page background -->
  <rect x="0" y="0" width="1080" height="1380" fill="#eceef2"/>

  <!-- ============================================================= -->
  <!-- TITLE -->
  <!-- ============================================================= -->
  <text x="40" y="34" font-size="17" font-weight="700" fill="#101828">FedProspect navigation redesign — what the MAIN CONTENT looks like</text>
  <text x="40" y="52" font-size="11.5" fill="#667085">Tier-1 destination (Dashboard) vs Tier-2 hub (Pipeline). Design mockup only — not the live app.</text>

  <!-- ============================================================= -->
  <!-- FRAME 1 CAPTION -->
  <!-- ============================================================= -->
  <text x="40" y="84" font-size="14" font-weight="700" fill="#1d2939">Click &#8220;Dashboard&#8221; &#8594; a destination (just a page, no tabs)</text>

  <!-- ============================================================= -->
  <!-- FRAME 1  (app shell)  x:40  y:96  w:1000  h:540 -->
  <!-- ============================================================= -->
  <g transform="translate(40,96)">
    <!-- shell card -->
    <rect x="0" y="0" width="1000" height="540" rx="10" fill="#ffffff" stroke="#e4e7ec" stroke-width="1" filter="url(#frameShadow)"/>
    <!-- light app background revealed under content area -->
    <rect x="210" y="48" width="790" height="492" fill="#f5f6f8"/>

    <!-- ===== LEFT SIDEBAR ===== -->
    <g>
      <rect x="0" y="0" width="210" height="540" rx="10" fill="#ffffff"/>
      <rect x="200" y="0" width="10" height="540" fill="#ffffff"/>
      <line x1="210" y1="0" x2="210" y2="540" stroke="#e4e7ec" stroke-width="1"/>

      <!-- brand -->
      <rect x="16" y="16" width="22" height="22" rx="6" fill="#1976d2"/>
      <text x="29.5" y="31.5" font-size="12" font-weight="700" fill="#ffffff" text-anchor="middle">F</text>
      <text x="46" y="32" font-size="13.5" font-weight="700" fill="#101828">FedProspect</text>
      <line x1="16" y1="48" x2="194" y2="48" stroke="#eef0f3" stroke-width="1"/>

      <!-- TIER 1 label -->
      <text x="18" y="68" font-size="9" font-weight="700" letter-spacing="0.6" fill="#98a2b3">TIER 1</text>

      <!-- Dashboard (ACTIVE) -->
      <rect x="12" y="74" width="186" height="30" rx="7" fill="#1976d2"/>
      <rect x="12" y="74" width="3" height="30" rx="1.5" fill="#0f56a4"/>
      <text x="24" y="93.5" font-size="12" font-weight="600" fill="#ffffff">Dashboard</text>

      <text x="24" y="124" font-size="12" fill="#475467">Recommended</text>
      <text x="24" y="152" font-size="12" fill="#475467">Prospects</text>
      <text x="24" y="180" font-size="12" fill="#475467">Opportunities</text>
      <text x="24" y="208" font-size="12" fill="#475467">Awards</text>
      <text x="24" y="236" font-size="12" fill="#475467">Entities</text>

      <line x1="16" y1="252" x2="194" y2="252" stroke="#eef0f3" stroke-width="1"/>

      <!-- TIER 2 label -->
      <text x="18" y="272" font-size="9" font-weight="700" letter-spacing="0.6" fill="#98a2b3">TIER 2 &#183; HUBS</text>

      <!-- hub rows with chevrons -->
      <text x="24" y="296" font-size="12" fill="#475467">Pipeline</text>
      <use href="#chevR" x="182" y="288"/>
      <text x="24" y="324" font-size="12" fill="#475467">Pricing</text>
      <use href="#chevR" x="182" y="316"/>
      <text x="24" y="352" font-size="12" fill="#475467">Teaming</text>
      <use href="#chevR" x="182" y="344"/>
      <text x="24" y="380" font-size="12" fill="#475467">Market Intel</text>
      <use href="#chevR" x="182" y="372"/>
      <text x="24" y="408" font-size="12" fill="#475467">Company &amp; Eligibility</text>
      <use href="#chevR" x="182" y="400"/>
    </g>

    <!-- ===== TOP BAR ===== -->
    <g>
      <rect x="210" y="0" width="790" height="48" fill="#ffffff"/>
      <line x1="210" y1="48" x2="1000" y2="48" stroke="#e4e7ec" stroke-width="1"/>
      <!-- breadcrumb -->
      <text x="232" y="29" font-size="12" fill="#98a2b3">Home<tspan fill="#cbd2dc">&#160;&#160;/&#160;&#160;</tspan><tspan fill="#1d2939" font-weight="600">Dashboard</tspan></text>
      <!-- search pill -->
      <rect x="640" y="13" width="210" height="23" rx="11.5" fill="#f2f4f7" stroke="#e4e7ec" stroke-width="1"/>
      <use href="#mag" x="657" y="24.5"/>
      <text x="670" y="28" font-size="11" fill="#98a2b3">Search&#8230;</text>
      <rect x="824" y="18" width="18" height="13" rx="3" fill="#e7ebf1"/>
      <text x="833" y="28" font-size="9.5" fill="#7a8699" text-anchor="middle">/</text>
      <!-- bell -->
      <use href="#bell" x="906" y="24"/>
      <circle cx="909" cy="19" r="3" fill="#d92d20"/>
      <!-- avatar -->
      <circle cx="958" cy="24" r="13" fill="#dbe7f6"/>
      <text x="958" y="28" font-size="10.5" font-weight="700" fill="#1976d2" text-anchor="middle">JS</text>
    </g>

    <!-- ===== MAIN CONTENT: DASHBOARD (no tabs) ===== -->
    <g transform="translate(210,48)">
      <!-- page heading -->
      <text x="24" y="34" font-size="16" font-weight="700" fill="#101828">Dashboard</text>
      <text x="24" y="52" font-size="11" fill="#667085">Overview of your pipeline activity</text>

      <!-- KPI STAT CARDS (4 across) -->
      <!-- card 1 -->
      <g transform="translate(24,68)">
        <rect x="0" y="0" width="178" height="78" rx="9" fill="#ffffff" stroke="#e4e7ec" stroke-width="1" filter="url(#cardShadow)"/>
        <text x="14" y="26" font-size="10" font-weight="600" letter-spacing="0.3" fill="#667085">NEW RECOMMENDATIONS</text>
        <text x="14" y="58" font-size="26" font-weight="700" fill="#1976d2">50</text>
        <rect x="120" y="40" width="44" height="20" rx="10" fill="#e8f1fd"/>
        <text x="142" y="54" font-size="9.5" font-weight="600" fill="#1976d2" text-anchor="middle">+12</text>
      </g>
      <!-- card 2 -->
      <g transform="translate(216,68)">
        <rect x="0" y="0" width="178" height="78" rx="9" fill="#ffffff" stroke="#e4e7ec" stroke-width="1" filter="url(#cardShadow)"/>
        <text x="14" y="26" font-size="10" font-weight="600" letter-spacing="0.3" fill="#667085">ACTIVE PROSPECTS</text>
        <text x="14" y="58" font-size="26" font-weight="700" fill="#101828">3</text>
      </g>
      <!-- card 3 -->
      <g transform="translate(408,68)">
        <rect x="0" y="0" width="178" height="78" rx="9" fill="#ffffff" stroke="#e4e7ec" stroke-width="1" filter="url(#cardShadow)"/>
        <text x="14" y="26" font-size="10" font-weight="600" letter-spacing="0.3" fill="#667085">BIDS DUE &#8804; 14d</text>
        <text x="14" y="58" font-size="26" font-weight="700" fill="#b54708">1</text>
        <circle cx="160" cy="22" r="4" fill="#f79009"/>
      </g>
      <!-- card 4 -->
      <g transform="translate(600,68)">
        <rect x="0" y="0" width="178" height="78" rx="9" fill="#ffffff" stroke="#e4e7ec" stroke-width="1" filter="url(#cardShadow)"/>
        <text x="14" y="26" font-size="10" font-weight="600" letter-spacing="0.3" fill="#667085">EXPIRING CONTRACTS</text>
        <text x="14" y="58" font-size="26" font-weight="700" fill="#101828">12</text>
      </g>

      <!-- LOWER PANELS (2 side by side) -->
      <!-- Panel: Top Recommended -->
      <g transform="translate(24,162)">
        <rect x="0" y="0" width="370" height="218" rx="9" fill="#ffffff" stroke="#e4e7ec" stroke-width="1" filter="url(#cardShadow)"/>
        <text x="16" y="28" font-size="12.5" font-weight="700" fill="#101828">Top Recommended</text>
        <line x1="0" y1="42" x2="370" y2="42" stroke="#eef0f3" stroke-width="1"/>

        <!-- row 1 -->
        <text x="16" y="68" font-size="11.5" fill="#1d2939">ARP HQ Strategic Planning Support</text>
        <rect x="296" y="56" width="58" height="18" rx="9" fill="#e8f1fd"/>
        <text x="325" y="69" font-size="10" font-weight="700" fill="#1976d2" text-anchor="middle">pWin 55%</text>
        <line x1="16" y1="84" x2="354" y2="84" stroke="#f2f4f7" stroke-width="1"/>
        <!-- row 2 -->
        <text x="16" y="110" font-size="11.5" fill="#1d2939">Broad Agency Announcement ARMY MPP</text>
        <rect x="296" y="98" width="58" height="18" rx="9" fill="#eef2f6"/>
        <text x="325" y="111" font-size="10" font-weight="700" fill="#475467" text-anchor="middle">51%</text>
        <line x1="16" y1="126" x2="354" y2="126" stroke="#f2f4f7" stroke-width="1"/>
        <!-- row 3 -->
        <text x="16" y="152" font-size="11.5" fill="#1d2939">OTASO TechAccess</text>
        <rect x="296" y="140" width="58" height="18" rx="9" fill="#eef2f6"/>
        <text x="325" y="153" font-size="10" font-weight="700" fill="#475467" text-anchor="middle">51%</text>

        <!-- footer link -->
        <text x="16" y="196" font-size="11" font-weight="600" fill="#1976d2">View all recommendations &#8594;</text>
      </g>

      <!-- Panel: Pipeline value by stage (bar chart) -->
      <g transform="translate(408,162)">
        <rect x="0" y="0" width="370" height="218" rx="9" fill="#ffffff" stroke="#e4e7ec" stroke-width="1" filter="url(#cardShadow)"/>
        <text x="16" y="28" font-size="12.5" font-weight="700" fill="#101828">Pipeline value by stage</text>
        <line x1="0" y1="42" x2="370" y2="42" stroke="#eef0f3" stroke-width="1"/>

        <!-- chart axis baseline -->
        <line x1="40" y1="170" x2="350" y2="170" stroke="#e4e7ec" stroke-width="1"/>
        <!-- gridlines -->
        <line x1="40" y1="138" x2="350" y2="138" stroke="#f2f4f7" stroke-width="1"/>
        <line x1="40" y1="106" x2="350" y2="106" stroke="#f2f4f7" stroke-width="1"/>
        <line x1="40" y1="74"  x2="350" y2="74"  stroke="#f2f4f7" stroke-width="1"/>
        <!-- y labels -->
        <text x="32" y="173" font-size="9" fill="#98a2b3" text-anchor="end">$0</text>
        <text x="32" y="141" font-size="9" fill="#98a2b3" text-anchor="end">2M</text>
        <text x="32" y="109" font-size="9" fill="#98a2b3" text-anchor="end">4M</text>
        <text x="32" y="77"  font-size="9" fill="#98a2b3" text-anchor="end">6M</text>

        <!-- bars -->
        <rect x="56"  y="92"  width="34" height="78"  rx="3" fill="#1976d2"/>
        <rect x="112" y="116" width="34" height="54"  rx="3" fill="#4894e0"/>
        <rect x="168" y="70"  width="34" height="100" rx="3" fill="#1976d2"/>
        <rect x="224" y="132" width="34" height="38"  rx="3" fill="#90c0ee"/>
        <rect x="280" y="148" width="34" height="22"  rx="3" fill="#c2dbf3"/>
        <!-- x labels -->
        <text x="73"  y="184" font-size="9" fill="#667085" text-anchor="middle">New</text>
        <text x="129" y="184" font-size="9" fill="#667085" text-anchor="middle">Review</text>
        <text x="185" y="184" font-size="9" fill="#667085" text-anchor="middle">Pursue</text>
        <text x="241" y="184" font-size="9" fill="#667085" text-anchor="middle">Bid</text>
        <text x="297" y="184" font-size="9" fill="#667085" text-anchor="middle">Won</text>
      </g>
    </g>

    <!-- annotation: NO tab strip -->
    <g>
      <rect x="724" y="54" width="262" height="22" rx="11" fill="#fdf4e7" stroke="#f5d9a8" stroke-width="1"/>
      <text x="738" y="69" font-size="10" font-weight="600" fill="#b54708">No tab strip &#8212; a destination is just a page</text>
    </g>
  </g>

  <!-- ============================================================= -->
  <!-- FRAME 2 CAPTION -->
  <!-- ============================================================= -->
  <text x="40" y="700" font-size="14" font-weight="700" fill="#1d2939">Click &#8220;Pipeline&#8221; &#8594; a hub (one nav item &#8594; a page with tabs)</text>

  <!-- ============================================================= -->
  <!-- FRAME 2  (app shell)  x:40  y:712  w:1000  h:540 -->
  <!-- ============================================================= -->
  <g transform="translate(40,712)">
    <rect x="0" y="0" width="1000" height="540" rx="10" fill="#ffffff" stroke="#e4e7ec" stroke-width="1" filter="url(#frameShadow)"/>
    <rect x="210" y="48" width="790" height="492" fill="#f5f6f8"/>

    <!-- ===== LEFT SIDEBAR ===== -->
    <g>
      <rect x="0" y="0" width="210" height="540" rx="10" fill="#ffffff"/>
      <rect x="200" y="0" width="10" height="540" fill="#ffffff"/>
      <line x1="210" y1="0" x2="210" y2="540" stroke="#e4e7ec" stroke-width="1"/>

      <!-- brand -->
      <rect x="16" y="16" width="22" height="22" rx="6" fill="#1976d2"/>
      <text x="29.5" y="31.5" font-size="12" font-weight="700" fill="#ffffff" text-anchor="middle">F</text>
      <text x="46" y="32" font-size="13.5" font-weight="700" fill="#101828">FedProspect</text>
      <line x1="16" y1="48" x2="194" y2="48" stroke="#eef0f3" stroke-width="1"/>

      <!-- TIER 1 label -->
      <text x="18" y="68" font-size="9" font-weight="700" letter-spacing="0.6" fill="#98a2b3">TIER 1</text>

      <text x="24" y="93.5" font-size="12" fill="#475467">Dashboard</text>
      <text x="24" y="124" font-size="12" fill="#475467">Recommended</text>
      <text x="24" y="152" font-size="12" fill="#475467">Prospects</text>
      <text x="24" y="180" font-size="12" fill="#475467">Opportunities</text>
      <text x="24" y="208" font-size="12" fill="#475467">Awards</text>
      <text x="24" y="236" font-size="12" fill="#475467">Entities</text>

      <line x1="16" y1="252" x2="194" y2="252" stroke="#eef0f3" stroke-width="1"/>

      <!-- TIER 2 label -->
      <text x="18" y="272" font-size="9" font-weight="700" letter-spacing="0.6" fill="#98a2b3">TIER 2 &#183; HUBS</text>

      <!-- Pipeline (ACTIVE hub) -->
      <rect x="12" y="280" width="186" height="30" rx="7" fill="#1976d2"/>
      <rect x="12" y="280" width="3" height="30" rx="1.5" fill="#0f56a4"/>
      <text x="24" y="299.5" font-size="12" font-weight="600" fill="#ffffff">Pipeline</text>
      <use href="#chevRactive" x="182" y="291"/>

      <text x="24" y="324" font-size="12" fill="#475467">Pricing</text>
      <use href="#chevR" x="182" y="316"/>
      <text x="24" y="352" font-size="12" fill="#475467">Teaming</text>
      <use href="#chevR" x="182" y="344"/>
      <text x="24" y="380" font-size="12" fill="#475467">Market Intel</text>
      <use href="#chevR" x="182" y="372"/>
      <text x="24" y="408" font-size="12" fill="#475467">Company &amp; Eligibility</text>
      <use href="#chevR" x="182" y="400"/>
    </g>

    <!-- ===== TOP BAR ===== -->
    <g>
      <rect x="210" y="0" width="790" height="48" fill="#ffffff"/>
      <line x1="210" y1="48" x2="1000" y2="48" stroke="#e4e7ec" stroke-width="1"/>
      <text x="232" y="29" font-size="12" fill="#98a2b3">Home<tspan fill="#cbd2dc">&#160;&#160;/&#160;&#160;</tspan><tspan fill="#1d2939" font-weight="600">Pipeline</tspan></text>
      <rect x="640" y="13" width="210" height="23" rx="11.5" fill="#f2f4f7" stroke="#e4e7ec" stroke-width="1"/>
      <use href="#mag" x="657" y="24.5"/>
      <text x="670" y="28" font-size="11" fill="#98a2b3">Search&#8230;</text>
      <rect x="824" y="18" width="18" height="13" rx="3" fill="#e7ebf1"/>
      <text x="833" y="28" font-size="9.5" fill="#7a8699" text-anchor="middle">/</text>
      <use href="#bell" x="906" y="24"/>
      <circle cx="909" cy="19" r="3" fill="#d92d20"/>
      <circle cx="958" cy="24" r="13" fill="#dbe7f6"/>
      <text x="958" y="28" font-size="10.5" font-weight="700" fill="#1976d2" text-anchor="middle">JS</text>
    </g>

    <!-- ===== MAIN CONTENT: PIPELINE HUB (tab strip) ===== -->
    <g transform="translate(210,48)">
      <!-- page heading -->
      <text x="24" y="34" font-size="16" font-weight="700" fill="#101828">Pipeline</text>

      <!-- ===== TAB STRIP (the whole point) ===== -->
      <g transform="translate(0,46)">
        <!-- tab strip bottom rule -->
        <rect x="24" y="0" width="754" height="34" fill="#ffffff"/>
        <line x1="24" y1="34" x2="778" y2="34" stroke="#e4e7ec" stroke-width="1.5"/>

        <!-- Board (ACTIVE) -->
        <text x="44" y="22" font-size="12.5" font-weight="700" fill="#1976d2">Board</text>
        <rect x="36" y="32.5" width="56" height="2.5" rx="1.25" fill="#1976d2"/>

        <!-- Forecast -->
        <text x="120" y="22" font-size="12.5" fill="#667085">Forecast</text>
        <!-- Analytics -->
        <text x="205" y="22" font-size="12.5" fill="#667085">Analytics</text>
        <!-- Calendar -->
        <text x="290" y="22" font-size="12.5" fill="#667085">Calendar</text>
        <!-- Stale Alerts -->
        <text x="372" y="22" font-size="12.5" fill="#667085">Stale Alerts</text>
        <!-- Expiring Contracts -->
        <text x="468" y="22" font-size="12.5" fill="#667085">Expiring Contracts</text>

        <!-- callout pointing at the tabs -->
        <text x="600" y="20" font-size="9.5" font-style="italic" fill="#1976d2" text-anchor="end">&#8593; these used to be separate sidebar rows</text>
      </g>

      <!-- ===== ACTIVE TAB CONTENT: mini KANBAN board ===== -->
      <g transform="translate(24,98)">
        <!-- toolbar above board -->
        <text x="0" y="20" font-size="11" fill="#667085">Board &#183; 5 prospects across 5 stages</text>
        <rect x="654" y="6" width="100" height="22" rx="6" fill="#1976d2"/>
        <text x="704" y="21" font-size="10.5" font-weight="600" fill="#ffffff" text-anchor="middle">+ Add prospect</text>

        <!-- KANBAN columns: 5 columns, each 144 wide, 8 gap, starting y=34 -->
        <!-- column template values: x = i*152 -->

        <!-- COL 1: New (3) -->
        <g transform="translate(0,34)">
          <rect x="0" y="0" width="144" height="296" rx="9" fill="#f2f4f7" stroke="#e4e7ec" stroke-width="1"/>
          <text x="12" y="24" font-size="11" font-weight="700" fill="#1d2939">New</text>
          <rect x="110" y="11" width="24" height="17" rx="8.5" fill="#dbe7f6"/>
          <text x="122" y="23.5" font-size="10" font-weight="700" fill="#1976d2" text-anchor="middle">3</text>
          <!-- card a -->
          <g transform="translate(10,38)">
            <rect x="0" y="0" width="124" height="58" rx="7" fill="#ffffff" stroke="#e4e7ec" stroke-width="1" filter="url(#cardShadow)"/>
            <rect x="0" y="0" width="3.5" height="58" rx="1.75" fill="#1976d2"/>
            <text x="12" y="18" font-size="10" font-weight="600" fill="#1d2939">ARP HQ Strategic</text>
            <text x="12" y="31" font-size="10" font-weight="600" fill="#1d2939">Planning</text>
            <rect x="12" y="38" width="52" height="15" rx="7.5" fill="#fdecea"/>
            <text x="38" y="49" font-size="9" font-weight="600" fill="#b42318" text-anchor="middle">5d left</text>
          </g>
          <!-- card b -->
          <g transform="translate(10,104)">
            <rect x="0" y="0" width="124" height="58" rx="7" fill="#ffffff" stroke="#e4e7ec" stroke-width="1" filter="url(#cardShadow)"/>
            <rect x="0" y="0" width="3.5" height="58" rx="1.75" fill="#1976d2"/>
            <text x="12" y="18" font-size="10" font-weight="600" fill="#1d2939">Steller Sea Lion</text>
            <text x="12" y="31" font-size="10" font-weight="600" fill="#1d2939">AI</text>
            <rect x="12" y="38" width="56" height="15" rx="7.5" fill="#eaf6ee"/>
            <text x="40" y="49" font-size="9" font-weight="600" fill="#067647" text-anchor="middle">57d left</text>
          </g>
        </g>

        <!-- COL 2: Reviewing (0) -->
        <g transform="translate(152,34)">
          <rect x="0" y="0" width="144" height="296" rx="9" fill="#f2f4f7" stroke="#e4e7ec" stroke-width="1"/>
          <text x="12" y="24" font-size="11" font-weight="700" fill="#1d2939">Reviewing</text>
          <rect x="110" y="11" width="24" height="17" rx="8.5" fill="#e7ebf1"/>
          <text x="122" y="23.5" font-size="10" font-weight="700" fill="#7a8699" text-anchor="middle">0</text>
          <rect x="10" y="40" width="124" height="40" rx="7" fill="none" stroke="#dde1e8" stroke-width="1.2" stroke-dasharray="4 4"/>
          <text x="72" y="64" font-size="9" fill="#aab2bf" text-anchor="middle">Drop here</text>
        </g>

        <!-- COL 3: Pursuing (0) -->
        <g transform="translate(304,34)">
          <rect x="0" y="0" width="144" height="296" rx="9" fill="#f2f4f7" stroke="#e4e7ec" stroke-width="1"/>
          <text x="12" y="24" font-size="11" font-weight="700" fill="#1d2939">Pursuing</text>
          <rect x="110" y="11" width="24" height="17" rx="8.5" fill="#e7ebf1"/>
          <text x="122" y="23.5" font-size="10" font-weight="700" fill="#7a8699" text-anchor="middle">0</text>
          <rect x="10" y="40" width="124" height="40" rx="7" fill="none" stroke="#dde1e8" stroke-width="1.2" stroke-dasharray="4 4"/>
          <text x="72" y="64" font-size="9" fill="#aab2bf" text-anchor="middle">Drop here</text>
        </g>

        <!-- COL 4: Bid Submitted (0) -->
        <g transform="translate(456,34)">
          <rect x="0" y="0" width="144" height="296" rx="9" fill="#f2f4f7" stroke="#e4e7ec" stroke-width="1"/>
          <text x="12" y="24" font-size="11" font-weight="700" fill="#1d2939">Bid Submitted</text>
          <rect x="110" y="11" width="24" height="17" rx="8.5" fill="#e7ebf1"/>
          <text x="122" y="23.5" font-size="10" font-weight="700" fill="#7a8699" text-anchor="middle">0</text>
          <rect x="10" y="40" width="124" height="40" rx="7" fill="none" stroke="#dde1e8" stroke-width="1.2" stroke-dasharray="4 4"/>
          <text x="72" y="64" font-size="9" fill="#aab2bf" text-anchor="middle">Drop here</text>
        </g>

        <!-- COL 5: Declined (2) -->
        <g transform="translate(608,34)">
          <rect x="0" y="0" width="144" height="296" rx="9" fill="#f2f4f7" stroke="#e4e7ec" stroke-width="1"/>
          <text x="12" y="24" font-size="11" font-weight="700" fill="#1d2939">Declined</text>
          <rect x="110" y="11" width="24" height="17" rx="8.5" fill="#e7ebf1"/>
          <text x="122" y="23.5" font-size="10" font-weight="700" fill="#7a8699" text-anchor="middle">2</text>
          <!-- card a -->
          <g transform="translate(10,38)">
            <rect x="0" y="0" width="124" height="48" rx="7" fill="#ffffff" stroke="#e4e7ec" stroke-width="1" filter="url(#cardShadow)"/>
            <rect x="0" y="0" width="3.5" height="48" rx="1.75" fill="#98a2b3"/>
            <text x="12" y="19" font-size="10" font-weight="600" fill="#667085">SeaPort-NxG</text>
            <text x="12" y="33" font-size="9" fill="#aab2bf">no fit</text>
          </g>
          <!-- card b -->
          <g transform="translate(10,94)">
            <rect x="0" y="0" width="124" height="48" rx="7" fill="#ffffff" stroke="#e4e7ec" stroke-width="1" filter="url(#cardShadow)"/>
            <rect x="0" y="0" width="3.5" height="48" rx="1.75" fill="#98a2b3"/>
            <text x="12" y="19" font-size="10" font-weight="600" fill="#667085">GENESIS IDIQ</text>
            <text x="12" y="33" font-size="9" fill="#aab2bf">past due</text>
          </g>
        </g>
      </g>
    </g>
  </g>

  <!-- ============================================================= -->
  <!-- BOTTOM LEGEND -->
  <!-- ============================================================= -->
  <g transform="translate(40,1284)">
    <rect x="0" y="0" width="1000" height="74" rx="10" fill="#ffffff" stroke="#e4e7ec" stroke-width="1" filter="url(#cardShadow)"/>

    <!-- destination swatch -->
    <rect x="20" y="20" width="14" height="14" rx="4" fill="#1976d2"/>
    <text x="42" y="31" font-size="11.5" fill="#1d2939"><tspan font-weight="700">DESTINATION</tspan> = just a page (Dashboard).</text>

    <!-- hub swatch with chevron -->
    <rect x="20" y="46" width="14" height="14" rx="4" fill="#ffffff" stroke="#1976d2" stroke-width="1.5"/>
    <use href="#chevR" x="24" y="49"/>
    <text x="42" y="57" font-size="11.5" fill="#1d2939"><tspan font-weight="700">HUB</tspan> = one sidebar item that opens a page whose <tspan font-weight="700" fill="#1976d2">TABS</tspan> are the tools that used to be separate sidebar rows (Pipeline)</text>
    <text x="42" y="71" font-size="10.5" fill="#667085">&#8212; same pattern as the existing Opportunity detail tabs.</text>
  </g>
</svg>
